<svg width="45" height="45" viewBox="0 0 45 45" fill="none" xmlns="http://www.w3.org/2000/svg">
<path fill-rule="evenodd" clip-rule="evenodd" d="M38.2417 0.51001H6.2417C4.6504 0.51001 3.12428 1.14215 1.99906 2.26737C0.87384 3.39259 0.241699 4.91871 0.241699 6.51001V38.51C0.241699 40.1013 0.87384 41.6274 1.99906 42.7527C3.12428 43.8779 4.6504 44.51 6.2417 44.51H38.2417C39.833 44.51 41.3591 43.8779 42.4843 42.7527C43.6096 41.6274 44.2417 40.1013 44.2417 38.51V6.51001C44.2417 4.91871 43.6096 3.39259 42.4843 2.26737C41.3591 1.14215 39.833 0.51001 38.2417 0.51001ZM32.0498 10.5626H28.6386L23.0177 18.5942L18.1577 10.5626H11.1188L19.5292 24.3095L11.5581 35.6977H14.9713L21.1234 26.9107L26.5 35.6977H33.3646L24.5974 21.2095L32.0498 10.5626ZM29.3316 33.1455H27.4414L15.1023 12.9807H17.1306L29.3316 33.1455Z" fill="white"/>
</svg>
